<svg aria-hidden="true" style="position:absolute;width:0;height:0;overflow:hidden" xmlns="http://www.w3.org/2000/svg">
  <defs>
  <symbol id="icon-Rating" viewBox="0 0 34 32">
<path fill="#ffc531" style="fill: var(--color1, #ffc531); stroke: var(--color1, #ffc531)" stroke="#ffc531" stroke-linejoin="miter" stroke-linecap="butt" stroke-miterlimit="4" stroke-width="2.56" d="M13.227 10.020l3.84-7.277 3.84 7.277c0.34 0.644 0.959 1.093 1.675 1.217l8.108 1.403-5.735 5.9c-0.507 0.522-0.744 1.249-0.64 1.97l1.171 8.144-7.384-3.631c-0.653-0.321-1.418-0.321-2.071 0l-7.384 3.631 1.171-8.144c0.104-0.72-0.133-1.448-0.64-1.97l-5.735-5.9 8.108-1.403c0.717-0.124 1.336-0.574 1.675-1.217zM30.971 12.35v0zM8.285 28.833c0 0 0 0 0 0h-0z"></path>
</symbol>

<symbol id="icon-heart" viewBox="0 0 36 32">
<path stroke-linejoin="round" stroke-linecap="round" stroke-miterlimit="4" stroke-width="3.3455" d="M31.040 5.251c-0.743-0.743-1.625-1.333-2.596-1.735s-2.011-0.609-3.062-0.609-2.091 0.207-3.062 0.609c-0.971 0.402-1.853 0.992-2.596 1.735l-1.542 1.542-1.542-1.542c-1.501-1.501-3.536-2.344-5.658-2.344s-4.158 0.843-5.658 2.344c-1.501 1.501-2.344 3.536-2.344 5.658s0.843 4.158 2.344 5.658l12.858 12.858 12.858-12.858c0.743-0.743 1.333-1.625 1.735-2.596s0.609-2.011 0.609-3.062-0.207-2.091-0.609-3.062c-0.402-0.971-0.992-1.853-1.735-2.596z"></path>
</symbol>
</defs>
</svg>