<svg aria-hidden="true" style="position:absolute;width:0;height:0;overflow:hidden" xmlns="http://www.w3.org/2000/svg">
  <defs>
  <symbol id="icon-Rating" viewBox="0 0 34 32">
<path fill="#ffc531" style="fill: var(--color1, #ffc531); stroke: var(--color1, #ffc531)" stroke="#ffc531" stroke-linejoin="miter" stroke-linecap="butt" stroke-miterlimit="4" stroke-width="2.56" d="M13.227 10.020l3.84-7.277 3.84 7.277c0.34 0.644 0.959 1.093 1.675 1.217l8.108 1.403-5.735 5.9c-0.507 0.522-0.744 1.249-0.64 1.97l1.171 8.144-7.384-3.631c-0.653-0.321-1.418-0.321-2.071 0l-7.384 3.631 1.171-8.144c0.104-0.72-0.133-1.448-0.64-1.97l-5.735-5.9 8.108-1.403c0.717-0.124 1.336-0.574 1.675-1.217zM30.971 12.35v0zM8.285 28.833c0 0 0 0 0 0h-0z"></path>
</symbol>

<symbol id="heart1" width="24" height="22" viewBox="0 0 24 22" fill="none">
<path d="M20.8401 3.60999C20.3294 3.099 19.7229 2.69364 19.0555 2.41708C18.388 2.14052 17.6726 1.99817 16.9501 1.99817C16.2276 1.99817 15.5122 2.14052 14.8448 2.41708C14.1773 2.69364 13.5709 3.099 13.0601 3.60999L12.0001 4.66999L10.9401 3.60999C9.90842 2.5783 8.50915 1.9987 7.05012 1.9987C5.59108 1.9987 4.19181 2.5783 3.16012 3.60999C2.12843 4.64169 1.54883 6.04096 1.54883 7.49999C1.54883 8.95903 2.12843 10.3583 3.16012 11.39L4.22012 12.45L12.0001 20.23L19.7801 12.45L20.8401 11.39C21.3511 10.8792 21.7565 10.2728 22.033 9.60535C22.3096 8.93789 22.4519 8.22248 22.4519 7.49999C22.4519 6.77751 22.3096 6.0621 22.033 5.39464C21.7565 4.72718 21.3511 4.12075 20.8401 3.60999Z" stroke="#101828" stroke-width="2.3" stroke-linecap="round" stroke-linejoin="round"/>
</symbol>
<symbol id="close" viewBox="0 0 32 32">
<path fill="none" stroke-linejoin="round" stroke-linecap="round" stroke-miterlimit="4" stroke-width="3.4286" d="M24 8l-16 16"></path>
<path fill="none" stroke-linejoin="round" stroke-linecap="round" stroke-miterlimit="4" stroke-width="3.4286" d="M8 8l16 16"></path>
</symbol>
</defs>
</svg>